{
  "accessors": [
    {
      "bufferView": 3,
      "componentType": 5126,
      "count": 560,
      "max": [
        1.2973933219909668,
        0.18894585967063904,
        1.1036347150802612
      ],
      "min": [
        -1.2973933219909668,
        -0.015220530331134796,
        -1.3641579151153564
      ],
      "type": "VEC3"
    },
    {
      "bufferView": 3,
      "byteOffset": 6720,
      "componentType": 5126,
      "count": 560,
      "max": [
        0.9999958276748657,
        0.015141746029257774,
        0.9765625596046448
      ],
      "min": [
        -1.0,
        -0.9999608397483826,
        -0.9520404934883118
      ],
      "type": "VEC3"
    },
    {
      "bufferView": 2,
      "componentType": 5126,
      "count": 560,
      "max": [
        1.0,
        1.0
      ],
      "min": [
        0.0,
        0.0
      ],
      "type": "VEC2"
    },
    {
      "bufferView": 1,
      "componentType": 5125,
      "count": 840,
      "type": "SCALAR"
    },
    {
      "bufferView": 3,
      "byteOffset": 13440,
      "componentType": 5126,
      "count": 160,
      "max": [
        1.2973933219909668,
        0.0018853233195841312,
        1.1036347150802612
      ],
      "min": [
        -1.2973933219909668,
        -0.01701182872056961,
        -1.3641579151153564
      ],
      "type": "VEC3"
    },
    {
      "bufferView": 3,
      "byteOffset": 15360,
      "componentType": 5126,
      "count": 160,
      "max": [
        0.05690785124897957,
        0.9997097849845886,
        0.058743398636579514
      ],
      "min": [
        -0.05690785124897957,
        0.9982675313949585,
        -0.049501948058605194
      ],
      "type": "VEC3"
    },
    {
      "bufferView": 2,
      "byteOffset": 4480,
      "componentType": 5126,
      "count": 160,
      "max": [
        1.0,
        1.0
      ],
      "min": [
        0.0,
        0.0
      ],
      "type": "VEC2"
    },
    {
      "bufferView": 1,
      "byteOffset": 3360,
      "componentType": 5125,
      "count": 240,
      "type": "SCALAR"
    },
    {
      "bufferView": 5,
      "componentType": 5126,
      "count": 7,
      "max": [
        1.0,
        0.9510564804077148,
        0.0,
        0.0,
        0.0,
        1.0,
        1.0,
        0.0,
        0.9510564804077148,
        0.8090168833732605,
        1.0,
        0.0,
        0.0,
        0.0,
        0.0,
        1.0
      ],
      "min": [
        -0.8090176582336426,
        -0.9510565996170044,
        0.0,
        0.0,
        0.0,
        0.0,
        0.0,
        0.0,
        -0.9510565996170044,
        -1.0,
        0.0,
        0.0,
        0.0,
        -0.06700507551431656,
        -0.06700508296489716,
        1.0
      ],
      "type": "MAT4"
    },
    {
      "bufferView": 0,
      "componentType": 5123,
      "count": 560,
      "type": "VEC4"
    },
    {
      "bufferView": 4,
      "componentType": 5126,
      "count": 560,
      "max": [
        1.0,
        0.45557084679603577,
        0.2606939971446991,
        0.08461789041757584
      ],
      "min": [
        0.464306503534317,
        0.0,
        0.0,
        0.0
      ],
      "type": "VEC4"
    },
    {
      "bufferView": 0,
      "byteOffset": 4480,
      "componentType": 5123,
      "count": 160,
      "type": "VEC4"
    },
    {
      "bufferView": 4,
      "byteOffset": 8960,
      "componentType": 5126,
      "count": 160,
      "max": [
        1.0,
        0.41623711585998535,
        0.2606939971446991,
        0.08461789041757584
      ],
      "min": [
        0.4460306465625763,
        0.0,
        0.0,
        0.0
      ],
      "type": "VEC4"
    },
    {
      "bufferView": 6,
      "componentType": 5126,
      "count": 81,
      "max": [
        3.3333332538604736
      ],
      "min": [
        0.0
      ],
      "type": "SCALAR"
    },
    {
      "bufferView": 7,
      "componentType": 5126,
      "count": 81,
      "max": [
        0.003927611745893955,
        -0.0006850510835647583,
        -0.008712539449334145
      ],
      "min": [
        0.0026100536342710257,
        -0.0006850510835647583,
        -0.00919358991086483
      ],
      "type": "VEC3"
    },
    {
      "bufferView": 6,
      "byteOffset": 324,
      "componentType": 5126,
      "count": 81,
      "max": [
        3.3333332538604736
      ],
      "min": [
        0.0
      ],
      "type": "SCALAR"
    },
    {
      "bufferView": 8,
      "componentType": 5126,
      "count": 81,
      "max": [
        -0.7063748240470886,
        0.032166555523872375,
        0.032166555523872375,
        0.7071066498756409
      ],
      "min": [
        -0.7071066498756409,
        -0.01975608989596367,
        -0.01975608989596367,
        0.7063748240470886
      ],
      "type": "VEC4"
    },
    {
      "bufferView": 6,
      "byteOffset": 648,
      "componentType": 5126,
      "count": 39,
      "max": [
        3.3333332538604736
      ],
      "min": [
        0.0
      ],
      "type": "SCALAR"
    },
    {
      "bufferView": 7,
      "byteOffset": 972,
      "componentType": 5126,
      "count": 39,
      "max": [
        0.9999999403953552,
        0.9999999403953552,
        1.0
      ],
      "min": [
        0.9999998807907104,
        0.9999998807907104,
        1.0
      ],
      "type": "VEC3"
    },
    {
      "bufferView": 6,
      "byteOffset": 804,
      "componentType": 5126,
      "count": 81,
      "max": [
        3.3333332538604736
      ],
      "min": [
        0.0
      ],
      "type": "SCALAR"
    },
    {
      "bufferView": 7,
      "byteOffset": 1440,
      "componentType": 5126,
      "count": 81,
      "max": [
        -0.00023346609668806195,
        -2.168118953704834e-06,
        0.00048619898734614253
      ],
      "min": [
        -0.0003468820941634476,
        -2.168118953704834e-06,
        0.0004129997396375984
      ],
      "type": "VEC3"
    },
    {
      "bufferView": 6,
      "byteOffset": 1128,
      "componentType": 5126,
      "count": 81,
      "max": [
        3.3333332538604736
      ],
      "min": [
        0.0
      ],
      "type": "SCALAR"
    },
    {
      "bufferView": 8,
      "byteOffset": 1296,
      "componentType": 5126,
      "count": 81,
      "max": [
        -0.5455664992332458,
        0.44984135031700134,
        0.44984135031700134,
        0.5975704789161682
      ],
      "min": [
        -0.5975704789161682,
        0.37803375720977783,
        0.3780337870121002,
        0.5455665588378906
      ],
      "type": "VEC4"
    },
    {
      "bufferView": 6,
      "byteOffset": 1452,
      "componentType": 5126,
      "count": 53,
      "max": [
        3.3333332538604736
      ],
      "min": [
        0.0
      ],
      "type": "SCALAR"
    },
    {
      "bufferView": 7,
      "byteOffset": 2412,
      "componentType": 5126,
      "count": 53,
      "max": [
        1.0000001192092896,
        1.0,
        1.0
      ],
      "min": [
        0.9999998807907104,
        0.9999998211860657,
        1.0
      ],
      "type": "VEC3"
    },
    {
      "bufferView": 6,
      "byteOffset": 1664,
      "componentType": 5126,
      "count": 81,
      "max": [
        3.3333332538604736
      ],
      "min": [
        0.0
      ],
      "type": "SCALAR"
    },
    {
      "bufferView": 7,
      "byteOffset": 3048,
      "componentType": 5126,
      "count": 81,
      "max": [
        -0.00036488022306002676,
        -3.4123659133911133e-06,
        0.0005691146361641586
      ],
      "min": [
        -0.0004503288073465228,
        -3.4123659133911133e-06,
        0.0005042152479290962
      ],
      "type": "VEC3"
    },
    {
      "bufferView": 6,
      "byteOffset": 1988,
      "componentType": 5126,
      "count": 81,
      "max": [
        3.3333332538604736
      ],
      "min": [
        0.0
      ],
      "type": "SCALAR"
    },
    {
      "bufferView": 8,
      "byteOffset": 2592,
      "componentType": 5126,
      "count": 81,
      "max": [
        -0.2069491147994995,
        0.6761451959609985,
        0.6761447191238403,
        0.25995540618896484
      ],
      "min": [
        -0.2599550187587738,
        0.6575892567634583,
        0.6575887799263,
        0.2069493979215622
      ],
      "type": "VEC4"
    },
    {
      "bufferView": 6,
      "byteOffset": 2312,
      "componentType": 5126,
      "count": 52,
      "max": [
        3.3333332538604736
      ],
      "min": [
        0.0
      ],
      "type": "SCALAR"
    },
    {
      "bufferView": 7,
      "byteOffset": 4020,
      "componentType": 5126,
      "count": 52,
      "max": [
        0.9999994039535522,
        1.0,
        1.0
      ],
      "min": [
        0.9999992251396179,
        0.9999998211860657,
        1.0
      ],
      "type": "VEC3"
    },
    {
      "bufferView": 6,
      "byteOffset": 2520,
      "componentType": 5126,
      "count": 81,
      "max": [
        3.3333332538604736
      ],
      "min": [
        0.0
      ],
      "type": "SCALAR"
    },
    {
      "bufferView": 7,
      "byteOffset": 4644,
      "componentType": 5126,
      "count": 81,
      "max": [
        -0.006123501341789961,
        -0.0044320449233055115,
        -0.02250201813876629
      ],
      "min": [
        -0.008243490010499954,
        -0.0044320449233055115,
        -0.023168915882706642
      ],
      "type": "VEC3"
    },
    {
      "bufferView": 6,
      "byteOffset": 2844,
      "componentType": 5126,
      "count": 81,
      "max": [
        3.3333332538604736
      ],
      "min": [
        0.0
      ],
      "type": "SCALAR"
    },
    {
      "bufferView": 8,
      "byteOffset": 3888,
      "componentType": 5126,
      "count": 81,
      "max": [
        -0.19265565276145935,
        -0.670690655708313,
        -0.6706905364990234,
        0.22399580478668213
      ],
      "min": [
        -0.22399580478668213,
        -0.6803556680679321,
        -0.6803556084632874,
        0.1926557421684265
      ],
      "type": "VEC4"
    },
    {
      "bufferView": 6,
      "byteOffset": 3168,
      "componentType": 5126,
      "count": 58,
      "max": [
        3.3333332538604736
      ],
      "min": [
        0.0
      ],
      "type": "SCALAR"
    },
    {
      "bufferView": 7,
      "byteOffset": 5616,
      "componentType": 5126,
      "count": 58,
      "max": [
        0.9999999403953552,
        1.0000001192092896,
        1.0
      ],
      "min": [
        0.9999997019767761,
        0.9999998211860657,
        1.0
      ],
      "type": "VEC3"
    },
    {
      "bufferView": 6,
      "byteOffset": 3400,
      "componentType": 5126,
      "count": 81,
      "max": [
        3.3333332538604736
      ],
      "min": [
        0.0
      ],
      "type": "SCALAR"
    },
    {
      "bufferView": 7,
      "byteOffset": 6312,
      "componentType": 5126,
      "count": 81,
      "max": [
        -0.0013497427571564913,
        -5.783885717391968e-05,
        0.002434168476611376
      ],
      "min": [
        -0.0021735860500484705,
        -5.783885717391968e-05,
        0.0017385352402925491
      ],
      "type": "VEC3"
    },
    {
      "bufferView": 6,
      "byteOffset": 3724,
      "componentType": 5126,
      "count": 81,
      "max": [
        3.3333332538604736
      ],
      "min": [
        0.0
      ],
      "type": "SCALAR"
    },
    {
      "bufferView": 8,
      "byteOffset": 5184,
      "componentType": 5126,
      "count": 81,
      "max": [
        -0.5336305499076843,
        -0.35178881883621216,
        -0.35178884863853455,
        0.6133878231048584
      ],
      "min": [
        -0.6133878231048584,
        -0.4639379382133484,
        -0.4639379382133484,
        0.5336306095123291
      ],
      "type": "VEC4"
    },
    {
      "bufferView": 6,
      "byteOffset": 4048,
      "componentType": 5126,
      "count": 44,
      "max": [
        3.3333332538604736
      ],
      "min": [
        0.0
      ],
      "type": "SCALAR"
    },
    {
      "bufferView": 7,
      "byteOffset": 7284,
      "componentType": 5126,
      "count": 44,
      "max": [
        1.0000001192092896,
        1.0,
        1.0
      ],
      "min": [
        0.9999998807907104,
        0.9999998807907104,
        1.0
      ],
      "type": "VEC3"
    }
  ],
  "animations": [
    {
      "channels": [
        {
          "sampler": 0,
          "target": {
            "node": 10,
            "path": "translation"
          }
        },
        {
          "sampler": 1,
          "target": {
            "node": 10,
            "path": "rotation"
          }
        },
        {
          "sampler": 2,
          "target": {
            "node": 10,
            "path": "scale"
          }
        },
        {
          "sampler": 3,
          "target": {
            "node": 11,
            "path": "translation"
          }
        },
        {
          "sampler": 4,
          "target": {
            "node": 11,
            "path": "rotation"
          }
        },
        {
          "sampler": 5,
          "target": {
            "node": 11,
            "path": "scale"
          }
        },
        {
          "sampler": 6,
          "target": {
            "node": 12,
            "path": "translation"
          }
        },
        {
          "sampler": 7,
          "target": {
            "node": 12,
            "path": "rotation"
          }
        },
        {
          "sampler": 8,
          "target": {
            "node": 12,
            "path": "scale"
          }
        },
        {
          "sampler": 9,
          "target": {
            "node": 13,
            "path": "translation"
          }
        },
        {
          "sampler": 10,
          "target": {
            "node": 13,
            "path": "rotation"
          }
        },
        {
          "sampler": 11,
          "target": {
            "node": 13,
            "path": "scale"
          }
        },
        {
          "sampler": 12,
          "target": {
            "node": 14,
            "path": "translation"
          }
        },
        {
          "sampler": 13,
          "target": {
            "node": 14,
            "path": "rotation"
          }
        },
        {
          "sampler": 14,
          "target": {
            "node": 14,
            "path": "scale"
          }
        }
      ],
      "name": "Walking",
      "samplers": [
        {
          "input": 13,
          "interpolation": "LINEAR",
          "output": 14
        },
        {
          "input": 15,
          "interpolation": "LINEAR",
          "output": 16
        },
        {
          "input": 17,
          "interpolation": "LINEAR",
          "output": 18
        },
        {
          "input": 19,
          "interpolation": "LINEAR",
          "output": 20
        },
        {
          "input": 21,
          "interpolation": "LINEAR",
          "output": 22
        },
        {
          "input": 23,
          "interpolation": "LINEAR",
          "output": 24
        },
        {
          "input": 25,
          "interpolation": "LINEAR",
          "output": 26
        },
        {
          "input": 27,
          "interpolation": "LINEAR",
          "output": 28
        },
        {
          "input": 29,
          "interpolation": "LINEAR",
          "output": 30
        },
        {
          "input": 31,
          "interpolation": "LINEAR",
          "output": 32
        },
        {
          "input": 33,
          "interpolation": "LINEAR",
          "output": 34
        },
        {
          "input": 35,
          "interpolation": "LINEAR",
          "output": 36
        },
        {
          "input": 37,
          "interpolation": "LINEAR",
          "output": 38
        },
        {
          "input": 39,
          "interpolation": "LINEAR",
          "output": 40
        },
        {
          "input": 41,
          "interpolation": "LINEAR",
          "output": 42
        }
      ]
    }
  ],
  "asset": {
    "extras": {
      "author": "rkuhlf (https://sketchfab.com/rkuhlf)",
      "license": "CC-BY-4.0 (http://creativecommons.org/licenses/by/4.0/)",
      "source": "https://sketchfab.com/3d-models/star-fish-6fac7eeb54f2474296a0c473214d44c1",
      "title": "Star Fish"
    },
    "generator": "Sketchfab-12.65.0",
    "version": "2.0"
  },
  "bufferViews": [
    {
      "buffer": 0,
      "byteLength": 5760,
      "byteStride": 8,
      "name": "shortBufferViews",
      "target": 34962
    },
    {
      "buffer": 0,
      "byteLength": 4320,
      "byteOffset": 5760,
      "name": "floatBufferViews",
      "target": 34963
    },
    {
      "buffer": 0,
      "byteLength": 5760,
      "byteOffset": 10080,
      "byteStride": 8,
      "name": "floatBufferViews",
      "target": 34962
    },
    {
      "buffer": 0,
      "byteLength": 17280,
      "byteOffset": 15840,
      "byteStride": 12,
      "name": "floatBufferViews",
      "target": 34962
    },
    {
      "buffer": 0,
      "byteLength": 11520,
      "byteOffset": 33120,
      "byteStride": 16,
      "name": "floatBufferViews",
      "target": 34962
    },
    {
      "buffer": 0,
      "byteLength": 448,
      "byteOffset": 44640,
      "name": "floatBufferViews"
    },
    {
      "buffer": 0,
      "byteLength": 4224,
      "byteOffset": 45088,
      "name": "floatBufferViews"
    },
    {
      "buffer": 0,
      "byteLength": 7812,
      "byteOffset": 49312,
      "byteStride": 12,
      "name": "floatBufferViews"
    },
    {
      "buffer": 0,
      "byteLength": 6480,
      "byteOffset": 57124,
      "byteStride": 16,
      "name": "floatBufferViews"
    }
  ],
  "buffers": [
    {
      "byteLength": 63604,
      "uri": "scene.bin"
    }
  ],
  "materials": [
    {
      "doubleSided": true,
      "name": "Starfish",
      "pbrMetallicRoughness": {
        "baseColorFactor": [
          0.658375,
          0.0409152,
          0.0262412,
          1.0
        ],
        "metallicFactor": 0.0,
        "roughnessFactor": 0.704545
      }
    },
    {
      "doubleSided": true,
      "name": "Underside",
      "pbrMetallicRoughness": {
        "baseColorFactor": [
          0.870079,
          0.270882,
          0.199851,
          1.0
        ],
        "metallicFactor": 0.0,
        "roughnessFactor": 0.772727
      }
    }
  ],
  "meshes": [
    {
      "name": "Object_0",
      "primitives": [
        {
          "attributes": {
            "JOINTS_0": 9,
            "NORMAL": 1,
            "POSITION": 0,
            "TEXCOORD_0": 2,
            "WEIGHTS_0": 10
          },
          "indices": 3,
          "material": 0,
          "mode": 4
        }
      ]
    },
    {
      "name": "Object_1",
      "primitives": [
        {
          "attributes": {
            "JOINTS_0": 11,
            "NORMAL": 5,
            "POSITION": 4,
            "TEXCOORD_0": 6,
            "WEIGHTS_0": 12
          },
          "indices": 7,
          "material": 1,
          "mode": 4
        }
      ]
    }
  ],
  "nodes": [
    {
      "children": [
        1
      ],
      "matrix": [
        0.5114169120788574,
        0.0,
        0.0,
        0.0,
        0.0,
        1.1355736619452937e-16,
        -0.5114169120788574,
        0.0,
        0.0,
        0.5114169120788574,
        1.1355736619452937e-16,
        0.0,
        0.0,
        0.0,
        0.0,
        1.0
      ],
      "name": "Sketchfab_model"
    },
    {
      "children": [
        2
      ],
      "name": "root"
    },
    {
      "children": [
        3
      ],
      "matrix": [
        1.0,
        0.0,
        0.0,
        0.0,
        0.0,
        2.220446049250313e-16,
        1.0,
        0.0,
        0.0,
        -1.0,
        2.220446049250313e-16,
        0.0,
        0.0,
        0.0,
        0.0,
        1.0
      ],
      "name": "GLTF_SceneRootNode"
    },
    {
      "children": [
        4
      ],
      "matrix": [
        1.0,
        0.0,
        0.0,
        0.0,
        0.0,
        1.0,
        0.0,
        0.0,
        0.0,
        0.0,
        1.0,
        0.0,
        0.0,
        0.06700507551431656,
        0.0,
        1.0
      ],
      "name": "Armature_9"
    },
    {
      "children": [
        5,
        7,
        8,
        6
      ],
      "name": "GLTF_created_0"
    },
    {
      "children": [
        9,
        10,
        11,
        12,
        13,
        14
      ],
      "name": "GLTF_created_0_rootJoint"
    },
    {
      "name": "Plane_8"
    },
    {
      "mesh": 0,
      "name": "Object_7",
      "skin": 0
    },
    {
      "mesh": 1,
      "name": "Object_8",
      "skin": 0
    },
    {
      "name": "Bone_2"
    },
    {
      "name": "Bone.001_3",
      "rotation": [
        -0.7068334221839905,
        -0.019660456106066704,
        -0.019660456106066704,
        0.7068334221839905
      ],
      "scale": [
        0.9999999403953552,
        0.9999999403953552,
        1.0
      ],
      "translation": [
        0.003925182390958071,
        -0.0006850510835647583,
        -0.008713426068425179
      ]
    },
    {
      "name": "Bone.002_4",
      "rotation": [
        -0.5456702709197998,
        0.44971540570259094,
        0.44971537590026855,
        0.5456702709197998
      ],
      "scale": [
        0.9999999403953552,
        0.9999999403953552,
        1.0
      ],
      "translation": [
        -0.0002336752222618088,
        -2.168118953704834e-06,
        0.0004860640619881451
      ]
    },
    {
      "name": "Bone.003_5",
      "rotation": [
        -0.25985872745513916,
        0.657627284526825,
        0.6576268076896667,
        0.2598590850830078
      ],
      "scale": [
        0.9999994039535522,
        0.9999998807907104,
        1.0
      ],
      "translation": [
        -0.0004501712683122605,
        -3.4123659133911133e-06,
        0.0005043349228799343
      ]
    },
    {
      "name": "Bone.004_6",
      "rotation": [
        -0.19271396100521088,
        -0.6803392171859741,
        -0.6803390383720398,
        0.19271396100521088
      ],
      "scale": [
        0.9999998211860657,
        0.9999999403953552,
        1.0
      ],
      "translation": [
        -0.0061274077743291855,
        -0.0044320449233055115,
        -0.0231676883995533
      ]
    },
    {
      "name": "Bone.005_7",
      "rotation": [
        -0.6132621169090271,
        -0.3520078659057617,
        -0.3520078659057617,
        0.6132621765136719
      ],
      "scale": [
        1.0,
        0.9999999403953552,
        1.0
      ],
      "translation": [
        -0.0013512619771063328,
        -5.783885717391968e-05,
        0.0024328858125954866
      ]
    }
  ],
  "scene": 0,
  "scenes": [
    {
      "name": "Sketchfab_Scene",
      "nodes": [
        0
      ]
    }
  ],
  "skins": [
    {
      "inverseBindMatrices": 8,
      "joints": [
        5,
        9,
        10,
        11,
        12,
        13,
        14
      ],
      "skeleton": 5
    }
  ]
}
